<svg width="21" height="16" viewBox="0 0 21 16" fill="none" xmlns="http://www.w3.org/2000/svg">
<path d="M16.7307 7.89746C16.7307 7.89746 16.5224 9.8322 15.7159 10.6426C14.9094 11.4491 12.9707 11.6574 12.9707 11.6574C12.9707 11.6574 14.9054 11.8657 15.7159 12.6722C16.5263 13.4787 16.7307 15.4174 16.7307 15.4174C16.7307 15.4174 16.939 13.4826 17.7454 12.6722C18.5519 11.8657 20.4906 11.6574 20.4906 11.6574C20.4906 11.6574 18.5559 11.4491 17.7454 10.6426C16.939 9.83616 16.7307 7.89746 16.7307 7.89746Z" fill="#1CC0E6"/>
<path d="M14.0662 0.145508C14.0662 0.145508 13.9172 1.5293 13.3404 2.10896C12.7636 2.68578 11.377 2.83477 11.377 2.83477C11.377 2.83477 12.7607 2.98375 13.3404 3.56058C13.9201 4.13741 14.0662 5.52403 14.0662 5.52403C14.0662 5.52403 14.2152 4.14024 14.792 3.56058C15.3688 2.98376 16.7555 2.83477 16.7555 2.83477C16.7555 2.83477 15.3717 2.68579 14.792 2.10896C14.2152 1.53214 14.0662 0.145508 14.0662 0.145508Z" fill="#1CC0E6"/>
<path d="M8.794 5.83888C7.30471 4.11808 6.92367 0 6.92367 0C6.92367 0 6.54262 4.12085 5.05333 5.83888C3.56404 7.55968 0 7.99996 0 7.99996C0 7.99996 3.56644 8.44024 5.05333 10.161C6.53902 11.8818 6.92367 15.9999 6.92367 15.9999C6.92367 15.9999 7.30471 11.8791 8.794 10.161C10.2833 8.44024 13.8473 7.99996 13.8473 7.99996C13.8473 7.99996 10.2809 7.55968 8.794 5.83888Z" fill="#1CC0E6"/>
</svg>
