<svg width="20" height="20" viewBox="0 0 20 20" fill="none" xmlns="http://www.w3.org/2000/svg">
<path d="M12.5 1.66667H7.5C7.03976 1.66667 6.66667 2.03977 6.66667 2.50001V4.16667C6.66667 4.62691 7.03976 5.00001 7.5 5.00001H12.5C12.9602 5.00001 13.3333 4.62691 13.3333 4.16667V2.50001C13.3333 2.03977 12.9602 1.66667 12.5 1.66667Z" stroke="#A7A8B1" stroke-linecap="round" stroke-linejoin="round"/>
<path d="M13.3333 3.33333H15C15.442 3.33333 15.8659 3.50892 16.1785 3.82148C16.4911 4.13404 16.6667 4.55797 16.6667 4.99999V16.6667C16.6667 17.1087 16.4911 17.5326 16.1785 17.8452C15.8659 18.1577 15.442 18.3333 15 18.3333H5C4.55797 18.3333 4.13405 18.1577 3.82149 17.8452C3.50893 17.5326 3.33333 17.1087 3.33333 16.6667V4.99999C3.33333 4.55797 3.50893 4.13404 3.82149 3.82148C4.13405 3.50892 4.55797 3.33333 5 3.33333H6.66667" stroke="#A7A8B1" stroke-linecap="round" stroke-linejoin="round"/>
<path d="M10 9.16667H13.3333" stroke="#A7A8B1" stroke-linecap="round" stroke-linejoin="round"/>
<path d="M10 13.3333H13.3333" stroke="#A7A8B1" stroke-linecap="round" stroke-linejoin="round"/>
<path d="M6.66667 9.16667H6.675" stroke="#A7A8B1" stroke-linecap="round" stroke-linejoin="round"/>
<path d="M6.66667 13.3333H6.675" stroke="#A7A8B1" stroke-linecap="round" stroke-linejoin="round"/>
</svg>
