<svg width="20" height="20" viewBox="0 0 20 20" fill="none" xmlns="http://www.w3.org/2000/svg">
<path d="M5 18.3333C4.55797 18.3333 4.13405 18.1577 3.82149 17.8452C3.50893 17.5326 3.33333 17.1087 3.33333 16.6667V3.33333C3.33333 2.8913 3.50893 2.46738 3.82149 2.15481C4.13405 1.84225 4.55797 1.66666 5 1.66666H11.6667C11.9305 1.66623 12.1917 1.71799 12.4354 1.81897C12.6791 1.91994 12.9005 2.06813 13.0867 2.25499L16.0767 5.24499C16.264 5.43125 16.4126 5.65278 16.5139 5.89679C16.6152 6.14081 16.6671 6.40247 16.6667 6.66666V16.6667C16.6667 17.1087 16.4911 17.5326 16.1785 17.8452C15.8659 18.1577 15.442 18.3333 15 18.3333H5Z" stroke="#3451E6" stroke-width="1.5" stroke-linecap="round" stroke-linejoin="round"/>
<path d="M11.6667 1.66666V5.83332C11.6667 6.05434 11.7545 6.2663 11.9107 6.42258C12.067 6.57886 12.279 6.66666 12.5 6.66666H16.6667" stroke="#3451E6" stroke-width="1.5" stroke-linecap="round" stroke-linejoin="round"/>
<path d="M6.66667 15V14.1667" stroke="#3451E6" stroke-width="1.5" stroke-linecap="round" stroke-linejoin="round"/>
<path d="M10 15V10" stroke="#3451E6" stroke-width="1.5" stroke-linecap="round" stroke-linejoin="round"/>
<path d="M13.3333 15V12.5" stroke="#3451E6" stroke-width="1.5" stroke-linecap="round" stroke-linejoin="round"/>
</svg>
