<svg width="20" height="20" viewBox="0 0 20 20" fill="none" xmlns="http://www.w3.org/2000/svg">
<path d="M2.57167 14.5908C2.64315 14.2661 2.61587 13.9274 2.49333 13.6183C1.64064 11.8491 1.44021 9.8356 1.92741 7.93302C2.41461 6.03045 3.55812 4.36107 5.1562 3.21944C6.75428 2.07781 8.70422 1.53729 10.662 1.69324C12.6198 1.84919 14.4595 2.6916 15.8567 4.07182C17.2539 5.45205 18.1187 7.2814 18.2986 9.23712C18.4784 11.1928 17.9618 13.1492 16.8397 14.7611C15.7177 16.373 14.0624 17.5369 12.166 18.0473C10.2695 18.5577 8.25365 18.3818 6.47417 17.5508C6.18211 17.4399 5.86476 17.4134 5.55833 17.4742L2.71417 18.3058C2.57697 18.3422 2.43274 18.343 2.29517 18.308C2.15759 18.2731 2.03123 18.2036 1.92806 18.1061C1.82488 18.0086 1.74833 17.8863 1.70565 17.7509C1.66296 17.6156 1.65557 17.4715 1.68417 17.3325L2.57167 14.5908Z" stroke="#B8C2E0" stroke-linecap="round" stroke-linejoin="round"/>
</svg>
