<svg width="164" height="36" viewBox="0 0 164 36" fill="none" xmlns="http://www.w3.org/2000/svg">
<path d="M19.9111 4.25202L29.8458 10.0858C30.5827 10.5186 31.0391 11.3056 31.0486 12.1601L31.1251 19.0025L17.9302 11.2438L15.0516 9.55852L13.7518 8.77123C12.7853 8.18581 11.6297 7.99716 10.5272 8.24479L17.4586 4.24299C18.2181 3.80445 19.1548 3.8079 19.9111 4.25202Z" fill="url(#paint0_linear_2248_1226)"/>
<path d="M31.1838 12.2165L31.0989 23.7372C31.0927 24.5917 30.6392 25.3805 29.904 25.816L24.0165 29.3034L24.1384 13.997L24.1585 10.6613L24.1904 9.14205C24.2142 8.01232 23.7998 6.91725 23.0341 6.08627L29.9654 10.0881C30.725 10.5266 31.1903 11.3395 31.1838 12.2165Z" fill="url(#paint1_linear_2248_1226)"/>
<path d="M29.9052 25.9656L19.8823 31.6543C19.1391 32.0761 18.2292 32.0778 17.4845 31.6588L11.5206 28.3038L24.8372 20.7561L27.7361 19.1057L29.0655 18.375C30.0585 17.8292 30.8067 16.926 31.1582 15.8488L31.1393 23.8519C31.1372 24.7269 30.6662 25.5336 29.9052 25.9656Z" fill="url(#paint2_linear_2248_1226)"/>
<path d="M17.3682 31.748L7.43349 25.9142C6.6966 25.4814 6.24019 24.6944 6.23065 23.8399L6.15423 16.9975L19.3491 24.7562L22.2277 26.4415L23.5275 27.2288C24.494 27.8142 25.6496 28.0028 26.7521 27.7552L19.8207 31.757C19.0612 32.1956 18.1245 32.1921 17.3682 31.748Z" fill="url(#paint3_linear_2248_1226)"/>
<path d="M6.13063 23.6751L6.21543 12.1651C6.22177 11.3048 6.68123 10.5116 7.42433 10.0781L13.3932 6.59585L13.1761 21.8946L13.1559 25.2303L13.124 26.7496C13.1003 27.8793 13.5147 28.9744 14.2804 29.8053L7.34907 25.8035C6.58949 25.365 6.12416 24.5521 6.13063 23.6751Z" fill="url(#paint4_linear_2248_1226)"/>
<path d="M7.40024 9.99747L17.4505 4.22645C18.2105 3.79005 19.1463 3.79532 19.9014 4.24026L23.0054 6.06947C23.0255 6.08063 23.0437 6.09415 23.0598 6.11056C23.162 6.21531 23.5649 6.6479 23.8024 7.19329C24.076 7.82167 24.1618 8.53655 24.1618 8.53655L12.4755 15.2109L9.57664 16.8613L8.24495 17.5933C7.25472 18.1376 6.51355 19.044 6.17676 20.1226V12.1109C6.17676 11.2381 6.64342 10.4321 7.40024 9.99747Z" fill="url(#paint5_linear_2248_1226)"/>
<path d="M58.8087 11.157C60.2406 10.8999 63.0399 11.2695 64.6291 11.1307C66.054 11.1678 67.5363 11.0229 68.9435 11.242C72.7169 11.8299 72.4335 14.9389 72.4103 17.7361C72.3803 21.3476 72.9042 24.3495 68.4259 24.8719C65.6433 25.0083 62.6244 24.8421 59.9005 24.8983C54.9128 25.001 54.4631 22.637 54.5871 18.4588C54.6976 14.7325 53.9228 11.6255 58.8087 11.157ZM67.9084 13.8611C66.6491 13.6288 65.1645 13.7634 63.882 13.7625C62.5304 13.7616 61.127 13.6876 59.7814 13.7879C59.244 13.828 58.3558 13.976 57.9933 14.4168C57.4007 15.1381 57.5304 19.6163 57.6427 20.7215L57.7277 21.0672C58.1014 21.991 58.7525 22.2127 59.7013 22.2361C62.1701 22.2971 64.6701 22.2429 67.1349 22.2381C69.2875 22.3312 69.5325 20.8219 69.4035 19.0584C69.3177 17.8871 69.7657 15.0872 68.8224 14.2859C68.5601 14.0671 68.2448 13.9204 67.9084 13.8611Z" fill="white"/>
<path d="M122.803 11.1593C124.098 11.0918 125.7 11.1273 127.019 11.1288L134.197 11.1424L134.201 13.7838C130.524 13.8645 126.8 13.6272 123.121 13.8489C120.987 13.9776 121.171 14.9491 121.194 16.721L133.616 16.7176L133.613 19.3104L123.447 19.3137L121.199 19.317C121.191 19.5955 121.187 19.8741 121.184 20.1527C121.177 21.5477 121.506 22.0862 122.974 22.1948C124.331 22.295 125.695 22.2587 127.055 22.2577L134.195 22.249L134.201 24.8873L126.41 24.8961C122.189 24.8995 117.946 25.5069 118.21 19.6273C118.392 15.5741 117.077 11.5815 122.803 11.1593Z" fill="white"/>
<path d="M88.7605 11.1396L91.7924 11.1415L91.8012 24.8894L88.7524 24.8886L88.7531 19.3178L77.9033 19.3238L77.8935 24.8867L74.8812 24.8927L74.8809 11.1387L77.8937 11.1393L77.9071 16.7158L88.7495 16.7112L88.7605 11.1396Z" fill="white"/>
<path d="M52.6635 24.8873L47.4311 24.8959C45.053 24.898 41.6446 25.3045 39.8457 23.5185C38.2642 21.9485 38.8256 19.4954 38.6795 17.5835C38.145 10.5904 42.4787 11.1304 47.6284 11.1355L52.6594 11.1436C52.6725 12.0161 52.6637 12.9118 52.6656 13.7865C50.2898 13.821 50.4257 13.7598 48.0437 13.7871C46.5035 13.8304 44.8291 13.6509 43.3295 13.9883C42.4599 14.184 41.7185 14.9392 41.764 15.8052C41.8242 16.9504 41.5456 19.5915 41.8278 20.5676L41.8613 20.8277C42.2739 21.616 42.6501 22.0415 43.5981 22.1574C44.9597 22.3239 46.3945 22.2557 47.7706 22.2543L52.6685 22.2456L52.6635 24.8873Z" fill="white"/>
<path d="M39.349 20.8275C39.2792 21.0493 39.1958 21.0814 38.9914 21.0906C38.847 20.9332 38.8773 21.0108 38.8756 20.8006C39.0507 20.5858 38.9927 20.6504 39.3155 20.5674L39.349 20.8275Z" fill="white"/>
<path d="M99.0635 11.1437L102.665 11.1367C103.322 12.4404 104.008 13.7303 104.72 15.0055L104.963 15.4252C105.871 17.2265 107.682 20.2314 108.732 21.9566C109.436 20.8935 110.246 19.3997 110.894 18.268C112.258 15.9232 113.565 13.5457 114.814 11.1375L118.373 11.1435L110.336 24.8892L107.122 24.8848L99.0635 11.1437Z" fill="white"/>
<path d="M94.709 11.1417L97.7145 11.1367L97.7152 24.8851L94.7061 24.8844L94.709 11.1417Z" fill="white"/>
<defs>
<linearGradient id="paint0_linear_2248_1226" x1="13.2905" y1="6.64941" x2="31.852" y2="18.5828" gradientUnits="userSpaceOnUse">
<stop stop-color="#0195FB"/>
<stop offset="0.461538" stop-color="#20D3FF"/>
<stop offset="1" stop-color="#375EFD"/>
</linearGradient>
<linearGradient id="paint1_linear_2248_1226" x1="25.7973" y1="7.68165" x2="24.7435" y2="29.7231" gradientUnits="userSpaceOnUse">
<stop stop-color="#8B5CFF" stop-opacity="0.6"/>
<stop offset="0.4375" stop-color="#7346E6"/>
<stop offset="1" stop-color="#431F99"/>
</linearGradient>
<linearGradient id="paint2_linear_2248_1226" x1="31.1359" y1="19.0352" x2="11.5444" y2="29.1099" gradientUnits="userSpaceOnUse">
<stop stop-color="#8B5CFF" stop-opacity="0.6"/>
<stop offset="0.432692" stop-color="#375FFE" stop-opacity="0.8"/>
<stop offset="1" stop-color="#375FFE"/>
</linearGradient>
<linearGradient id="paint3_linear_2248_1226" x1="23.9888" y1="29.3506" x2="5.42729" y2="17.4172" gradientUnits="userSpaceOnUse">
<stop stop-color="#20D3FF" stop-opacity="0.6"/>
<stop offset="0.471154" stop-color="#375FFE"/>
<stop offset="1" stop-color="#2238B7"/>
</linearGradient>
<linearGradient id="paint4_linear_2248_1226" x1="11.5171" y1="28.21" x2="12.571" y2="6.16853" gradientUnits="userSpaceOnUse">
<stop stop-color="#375FFE"/>
<stop offset="0.475962" stop-color="#20D3FF"/>
<stop offset="1" stop-color="#375FFE"/>
</linearGradient>
<linearGradient id="paint5_linear_2248_1226" x1="6.17676" y1="16.9319" x2="25.7921" y2="6.82383" gradientUnits="userSpaceOnUse">
<stop stop-color="#20D3FF" stop-opacity="0.8"/>
<stop offset="1" stop-color="#375FFE"/>
</linearGradient>
</defs>
</svg>
